<?xml version="1.0" encoding="utf-8"?>
<!-- Generator: Adobe Illustrator 22.0.1, SVG Export Plug-In . SVG Version: 6.00 Build 0)  -->
<svg version="1.1" id="Layer_1" xmlns="http://www.w3.org/2000/svg" xmlns:xlink="http://www.w3.org/1999/xlink" x="0px" y="0px"
	 viewBox="0 0 571.6 281.8" style="enable-background:new 0 0 571.6 281.8;" xml:space="preserve">
<style type="text/css">
	.st0{fill:#8B8B8B;stroke:#D2E289;stroke-width:24.4225;stroke-miterlimit:10;}
	.st1{fill:#8B8B8B;}
	.st2{fill:#D2E289;}
	.st3{fill:none;}
	.st4{enable-background:new    ;}
	.st5{fill:#231F20;}
</style>
<circle class="st0" cx="154.6" cy="140.9" r="128.7"/>
<path class="st1" d="M75.1,98.8l11.4-14.6c3.4-4.3,2.6-10.6-1.7-14L27.5,25.4c-4.3-3.4-10.6-2.6-14,1.7L2.1,41.7
	c-3.4,4.3-2.6,10.6,1.7,14l57.3,44.8C65.4,103.9,71.7,103.1,75.1,98.8z"/>
<circle class="st2" cx="204.9" cy="203.6" r="16.3"/>
<circle class="st2" cx="101.8" cy="203.6" r="16.3"/>
<rect x="312.9" y="25.1" class="st3" width="258.7" height="85.2"/>
<g class="st4">
	<path class="st5" d="M352.9,46.2c2,0,3,0.8,3,2.5c0,0.8-0.3,1.4-0.8,1.8c-0.5,0.4-1,0.7-1.4,0.9c-1.8,1-3.7,3.8-5.6,8.5l-11.5,28.2
		c-2.3,5.7-4.3,9.7-6.2,11.9s-4.2,3.3-7.1,3.3c-2.9,0-5.2-0.8-6.8-2.3c-1.6-1.5-2.4-3.2-2.4-5.1s0.4-3.3,1.2-4.3
		c0.8-1,1.7-1.5,2.9-1.5c2.2,0,3.3,1,3.3,3c0,0.5-0.1,1-0.3,1.5c-0.2,0.5-0.3,0.9-0.3,1.4s0.3,0.8,0.8,1.2c0.5,0.4,1.1,0.5,1.8,0.5
		c1.4,0,2.8-1,4.2-3.1c1.4-2.1,3.1-5.9,5.2-11.5L322.1,60c-1.9-4.1-4-7-6.1-8.5c-1.4-1-2.1-2-2.1-2.9c0-1.6,1-2.3,3-2.3l4,0.3
		l6.6-0.5c1.2,0,2.1,0.2,2.7,0.7c0.6,0.5,0.9,1,0.9,1.7c0,2.2-1.9,3.3-5.7,3.3l10.5,24.2l9-24.2h-0.5c-3.8,0-5.7-1.1-5.7-3.3
		c0-0.7,0.3-1.3,0.9-1.7c0.6-0.5,1.5-0.7,2.6-0.7l6.6,0.5L352.9,46.2z"/>
	<path class="st5" d="M360.1,65.1c0-5.6,1.8-10.2,5.3-13.9c3.6-3.7,8-5.6,13.4-5.6c5.4,0,9.8,1.7,13.2,5.2c3.4,3.4,5.1,8,5.1,13.8
		c0,5.7-1.8,10.4-5.3,14.1c-3.5,3.7-8,5.5-13.5,5.5c-5.5,0-9.9-1.8-13.2-5.3C361.7,75.3,360.1,70.7,360.1,65.1z M366.5,64.7
		c0,4,1.2,7.3,3.5,9.8s5.3,3.8,8.8,3.8c3.6,0,6.4-1.2,8.6-3.6c2.2-2.4,3.3-5.5,3.3-9.5c0-6.6-2.3-10.9-7-12.9c-1.5-0.7-3.3-1-5.2-1
		c-3.7,0-6.6,1.2-8.8,3.6C367.5,57.5,366.5,60.7,366.5,64.7z"/>
	<path class="st5" d="M422.5,75.8c1.6,0,2.4,0.9,2.4,2.8c0,1.4-0.9,2.7-2.7,3.9c-1.8,1.2-3.9,1.8-6.3,1.8c-4.1,0-6.8-1.9-8.2-5.8
		c-0.5-1.3-0.7-2.9-0.7-4.7V34c0-1-0.1-1.6-0.2-1.8c-0.2-0.2-0.4-0.4-0.7-0.4l-3.2,0.4c-1,0-1.7-0.2-2.4-0.7
		c-0.6-0.5-0.9-1.2-0.9-2.1c0-1.9,1.3-2.9,4-3.2c1.7-0.1,3-0.4,4-0.7c1-0.3,1.9-0.5,3-0.5c1.9,0,2.9,1.2,2.9,3.5v40.8
		c0,3.4,0.2,5.6,0.5,6.5c0.3,0.9,0.7,1.6,1.1,1.9c0.4,0.3,1.1,0.4,1.9,0.4s1.7-0.3,2.3-0.9c0.7-0.6,1.2-1,1.6-1.3
		C421.3,75.9,421.9,75.8,422.5,75.8z"/>
	<path class="st5" d="M445.3,83.6l-6.7-0.2l-3.7,0.1c-1,0.1-1.9,0.1-2.9,0.1c-2.3,0-3.5-0.9-3.5-2.7c0-0.9,0.4-1.6,1.1-2.1
		c0.7-0.5,1.7-0.7,3-0.7h3.2V34c0-1.5-0.3-2.2-0.9-2.2c-0.2,0-0.4,0-0.7,0.1l-0.9,0.2c-0.6,0.1-1.2,0.2-1.7,0.2c-2.2,0-3.2-1-3.2-3
		c0-0.8,0.3-1.4,1-2c0.7-0.6,1.7-0.9,3.2-1c1.4-0.1,2.5-0.3,3.2-0.5l1.7-0.5c0.4-0.1,0.9-0.2,1.4-0.2c2.2,0,3.3,1.2,3.3,3.6v34.8
		c5.1-1.7,9.7-4.4,13.6-8.1c1.3-1.2,2.4-2.5,3.3-3.8l-4.2,0.2c-1.2,0-2.1-0.3-2.8-0.8c-0.7-0.5-1-1.2-1-2s0.4-1.5,1.1-2
		s1.7-0.8,3-0.8l7.6,0.3l6.4-0.4c1.3,0,2.2,0.3,2.8,0.8c0.6,0.5,0.9,1.2,0.9,2c0,1.9-1.3,2.8-3.9,2.8h-1.2c-0.5,0-1,0-1.6-0.1
		c-2.2,3.4-5.4,6.8-9.8,10.2c2.7,3.1,4.9,6.1,6.7,9.1l4.4,7.4h2.5c3.1,0,4.6,1,4.6,2.9c0,0.7-0.3,1.3-0.9,1.8
		c-0.6,0.5-1.4,0.8-2.3,0.8l-7.1-0.2l-3.7,0.1c-1,0.1-2,0.1-3.3,0.1c-2.3,0-3.5-0.9-3.5-2.7c0-0.9,0.4-1.6,1.1-2.1
		c0.7-0.5,1.7-0.7,3-0.7h2.5c-3.1-5.5-6.1-9.8-9-13.2c-3.3,1.9-6.4,3.3-9.4,4.2v9h1.7c3.1,0,4.6,1,4.6,2.9c0,0.7-0.3,1.3-0.9,1.8
		C447,83.3,446.2,83.6,445.3,83.6z"/>
	<path class="st5" d="M501.4,62.7l-7.1-0.2c-0.9,0-1.6,0-2.1,0l-1.6,0.1c-1.2,0.1-2.4,0.1-3.4,0.1c-1,0-1.8-0.3-2.5-1
		c-0.6-0.6-1-1.4-1-2.3s0.3-1.7,1-2.3c0.7-0.6,1.5-0.9,2.6-0.9l7,0.3l7-0.3c1.6,0,2.7,0.7,3.3,2c0.2,0.4,0.3,0.9,0.3,1.6
		s-0.3,1.3-1,1.9C503.2,62.4,502.4,62.7,501.4,62.7z"/>
	<path class="st5" d="M559.7,69.8c1.7,0,2.6,0.9,2.6,2.7c0,0.9-0.3,1.7-1,2.6c-1.7,2.2-2.9,4.6-3.8,7.2l-0.4,1.4
		c-0.3,1.1-0.5,2-0.6,2.8c-0.1,0.8-0.5,1.4-1,1.7c-0.5,0.4-1.2,0.6-1.9,0.6c-0.7,0-1.4-0.3-1.9-1c-0.6-0.7-0.9-1.2-0.9-1.8v-1
		c0-0.1,0-0.2,0-0.4c-3-0.5-6.2-0.8-9.7-0.8c-3.7-0.1-6.9-0.2-9.5-0.2c-2.6,0-5.1,0.1-7.4,0.3c-2.3,0.2-3.8,0.3-4.7,0.3
		c-2.2,0-3.2-1-3.2-3c0-1.4,1.1-2.3,3.4-2.9c0.8-0.2,1.7-0.3,2.8-0.3h3V32.7h-1.4c-4.7,0-7-1.1-7-3.4c0-1.9,1.7-2.8,5.1-2.8
		l16.4,0.5c4.4,0,8.1-0.3,11.1-0.8c-0.1-0.4-0.2-0.8-0.2-1.3c0-0.5,0.2-0.9,0.7-1.4s1.1-0.7,2-0.7c2.2,0,4.7,3.8,7.4,11.3
		c0.5,1.4,0.8,2.5,0.8,3.2c0,1.7-0.8,2.5-2.3,2.5c-1.3,0-2.5-1.3-3.4-3.9c-0.6-1.6-1.5-2.7-2.7-3.4c-1.2-0.6-2.8-1-4.7-1h-0.9
		c-1.3,0-2.8,0.1-4.5,0.2c-1.7,0.1-3.1,0.3-4.1,0.3l-3,0.2c-1,0.1-1.9,0.1-2.6,0.2v16.1c5.9,0,9.2-0.1,10-0.2
		c0.8-0.2,1.4-0.4,1.8-0.7c0.4-0.3,0.7-1,0.8-1.9c0.2-0.9,0.5-1.6,1.2-2.1c0.6-0.5,1.2-0.7,1.9-0.7s1.2,0.2,1.7,0.6s0.7,0.9,0.7,1.6
		s-0.2,1.6-0.7,2.8c-0.4,1.2-0.7,2.3-0.7,3.5s0.2,2.3,0.7,3.5l1,2.6c0.2,0.6,0.4,1.3,0.4,2s-0.3,1.3-0.8,1.8c-0.6,0.4-1.2,0.7-2,0.7
		c-1.6,0-2.6-1-3-3.1c-0.4-2.1-0.8-3.4-1.3-4c-0.5-0.6-1.3-0.9-2.5-0.9h-9.2v23.8c1.1,0,2.1,0.1,3.2,0.1l3.3,0.1
		c0.7,0,1.4,0.1,2.3,0.1c0.9,0,1.9,0.1,3.1,0.1c1.2,0,2.6,0.1,4.2,0.1s2.8-0.3,3.6-0.8c0.8-0.5,1.8-1.7,3-3.5c1.2-1.8,2.1-3,2.7-3.6
		C558.3,70.1,558.9,69.8,559.7,69.8z"/>
</g>
<g class="st4">
	<path class="st5" d="M414.2,117.4c-1.7,0-3-0.5-3.9-1.6s-1.4-2.5-1.4-4.4c0-1.9,0.5-3.4,1.5-4.5s2.3-1.6,4-1.6c1,0,2,0.2,2.9,0.5
		l-0.3,0.9c-1-0.3-1.9-0.5-2.6-0.5c-1.4,0-2.5,0.4-3.2,1.3c-0.7,0.9-1.1,2.1-1.1,3.8c0,1.6,0.4,2.8,1.1,3.7c0.7,0.9,1.8,1.3,3.1,1.3
		c1.1,0,2-0.2,2.9-0.6v1C416.4,117.2,415.4,117.4,414.2,117.4z"/>
	<path class="st5" d="M422,117.2h-1.1v-16.6h1.1V117.2z"/>
	<path class="st5" d="M436.5,111.3c0,1.9-0.5,3.4-1.4,4.4c-0.9,1.1-2.2,1.6-3.8,1.6c-1,0-1.9-0.2-2.7-0.7s-1.4-1.2-1.8-2.1
		c-0.4-0.9-0.6-2-0.6-3.2c0-1.9,0.5-3.4,1.4-4.4c0.9-1.1,2.2-1.6,3.8-1.6c1.6,0,2.8,0.5,3.8,1.6C436,108,436.5,109.5,436.5,111.3z
		 M427.3,111.3c0,1.6,0.4,2.8,1.1,3.7c0.7,0.9,1.7,1.3,3,1.3c1.3,0,2.3-0.4,3-1.3c0.7-0.9,1.1-2.1,1.1-3.7c0-1.6-0.4-2.8-1.1-3.7
		c-0.7-0.9-1.7-1.3-3-1.3s-2.3,0.4-3,1.3C427.7,108.5,427.3,109.7,427.3,111.3z"/>
	<path class="st5" d="M443.8,116.4c0.7,0,1.3-0.1,1.8-0.2v0.9c-0.5,0.2-1.1,0.3-1.8,0.3c-1,0-1.8-0.3-2.3-0.8s-0.7-1.4-0.7-2.6v-7.5
		H439v-0.6l1.7-0.5l0.5-2.6h0.5v2.8h3.4v0.9h-3.4v7.4c0,0.9,0.2,1.6,0.5,2C442.6,116.2,443.1,116.4,443.8,116.4z"/>
	<path class="st5" d="M457.1,117.2v-7.5c0-1.2-0.2-2-0.7-2.5c-0.5-0.5-1.3-0.8-2.3-0.8c-1.4,0-2.4,0.4-3.1,1.1c-0.6,0.7-1,1.8-1,3.4
		v6.4H449v-16.6h1.1v5.3l-0.1,1.5h0.1c0.4-0.7,1-1.2,1.6-1.5s1.5-0.5,2.5-0.5c2.6,0,4,1.4,4,4.2v7.6H457.1z"/>
	<path class="st5" d="M462.8,102.3c0-0.7,0.2-1,0.7-1c0.2,0,0.4,0.1,0.5,0.3s0.2,0.4,0.2,0.8c0,0.3-0.1,0.6-0.2,0.8
		c-0.1,0.2-0.3,0.3-0.5,0.3C463,103.3,462.8,103,462.8,102.3z M464,117.2h-1.1v-11.6h1.1V117.2z"/>
	<path class="st5" d="M477,117.2v-7.5c0-1.2-0.2-2-0.7-2.5c-0.5-0.5-1.3-0.8-2.3-0.8c-1.4,0-2.4,0.4-3.1,1.1c-0.6,0.7-1,1.8-1,3.4
		v6.4h-1.1v-11.6h0.9l0.2,1.6h0.1c0.8-1.2,2.1-1.8,4-1.8c2.6,0,4,1.4,4,4.2v7.6H477z"/>
	<path class="st5" d="M491.8,105.5v0.7l-2.4,0.1c0.6,0.8,1,1.7,1,2.6c0,1.1-0.4,2-1.1,2.7c-0.7,0.7-1.7,1-3,1c-0.5,0-0.9,0-1.1-0.1
		c-0.4,0.2-0.7,0.5-1,0.8c-0.2,0.3-0.3,0.6-0.3,1c0,0.4,0.1,0.6,0.4,0.8c0.3,0.2,0.8,0.3,1.4,0.3h2c1.3,0,2.2,0.3,2.9,0.8
		c0.7,0.5,1,1.3,1,2.3c0,1.2-0.5,2.2-1.5,2.8s-2.4,1-4.3,1c-1.5,0-2.6-0.3-3.4-0.8s-1.2-1.3-1.2-2.4c0-0.8,0.2-1.5,0.7-2
		c0.5-0.5,1.2-0.9,2-1.1c-0.3-0.1-0.6-0.4-0.8-0.6c-0.2-0.3-0.3-0.6-0.3-0.9c0-0.8,0.5-1.5,1.5-2.1c-0.7-0.3-1.2-0.7-1.6-1.3
		s-0.6-1.3-0.6-2c0-1.2,0.4-2.1,1.1-2.8c0.7-0.7,1.7-1.1,3-1.1c0.8,0,1.4,0.1,1.8,0.2H491.8z M482.4,119.1c0,1.6,1.2,2.4,3.6,2.4
		c3.1,0,4.6-1,4.6-2.9c0-0.7-0.2-1.2-0.7-1.5s-1.3-0.5-2.3-0.5h-1.9C483.5,116.6,482.4,117.4,482.4,119.1z M483.3,109.2
		c0,0.9,0.3,1.6,0.8,2.1c0.5,0.5,1.3,0.7,2.2,0.7c1,0,1.7-0.2,2.2-0.7c0.5-0.5,0.8-1.2,0.8-2.1c0-1-0.3-1.7-0.8-2.2
		c-0.5-0.5-1.3-0.7-2.2-0.7c-0.9,0-1.7,0.3-2.2,0.8C483.6,107.5,483.3,108.2,483.3,109.2z"/>
	<path class="st5" d="M506.8,105.3c1.6,0,2.8,0.5,3.7,1.5c0.8,1,1.2,2.5,1.2,4.5c0,1.9-0.4,3.4-1.3,4.5c-0.9,1-2.1,1.6-3.7,1.6
		c-0.8,0-1.6-0.2-2.2-0.5c-0.7-0.3-1.2-0.8-1.6-1.5h-0.1l-0.3,1.8h-0.7v-16.6h1.1v4.2c0,0.6,0,1.2,0,1.7l0,0.9h0.1
		c0.4-0.7,1-1.2,1.6-1.5C505.1,105.5,505.9,105.3,506.8,105.3z M506.7,106.3c-1.4,0-2.3,0.4-2.9,1.2s-0.9,2.1-0.9,3.9v0.2
		c0,1.8,0.3,3,0.9,3.8c0.6,0.8,1.6,1.1,2.9,1.1c1.3,0,2.2-0.4,2.9-1.3s1-2.2,1-3.8C510.6,108,509.3,106.3,506.7,106.3z"/>
	<path class="st5" d="M520.5,105.3c0.5,0,1,0.1,1.6,0.1l-0.2,1c-0.5-0.1-1-0.2-1.5-0.2c-1,0-1.8,0.4-2.4,1.3c-0.6,0.8-1,1.9-1,3.2
		v6.4h-1.1v-11.6h0.9l0.1,2.1h0.1c0.5-0.9,1-1.5,1.5-1.8C519,105.5,519.7,105.3,520.5,105.3z"/>
	<path class="st5" d="M532.4,117.2l-0.3-1.8h-0.1c-0.6,0.7-1.2,1.3-1.8,1.6s-1.3,0.5-2.2,0.5c-1.1,0-2-0.3-2.7-0.9
		c-0.6-0.6-1-1.4-1-2.4c0-1.1,0.5-2,1.4-2.6c0.9-0.6,2.3-1,4.1-1l2.2-0.1v-0.8c0-1.1-0.2-1.9-0.7-2.5c-0.4-0.6-1.2-0.8-2.2-0.8
		c-1.1,0-2.2,0.3-3.3,0.9l-0.4-0.9c1.3-0.6,2.5-0.9,3.8-0.9c1.3,0,2.2,0.3,2.9,1c0.6,0.7,0.9,1.7,0.9,3.1v7.7H532.4z M528.2,116.4
		c1.2,0,2.2-0.4,2.9-1.1c0.7-0.7,1.1-1.7,1.1-3v-1.1l-2,0.1c-1.6,0.1-2.8,0.3-3.5,0.8c-0.7,0.4-1,1.1-1,2c0,0.7,0.2,1.3,0.7,1.7
		C526.7,116.2,527.4,116.4,528.2,116.4z"/>
	<path class="st5" d="M546.1,117.2v-7.5c0-1.2-0.2-2-0.7-2.5c-0.5-0.5-1.3-0.8-2.3-0.8c-1.4,0-2.4,0.4-3.1,1.1c-0.6,0.7-1,1.8-1,3.4
		v6.4H538v-11.6h0.9l0.2,1.6h0.1c0.8-1.2,2.1-1.8,4-1.8c2.6,0,4,1.4,4,4.2v7.6H546.1z"/>
	<path class="st5" d="M556.1,105.3c0.8,0,1.6,0.2,2.2,0.5c0.6,0.3,1.2,0.8,1.6,1.6h0.1c0-0.9-0.1-1.8-0.1-2.6v-4.2h1v16.6h-0.7
		l-0.3-1.8H560c-0.9,1.3-2.2,2-3.8,2c-1.6,0-2.8-0.5-3.7-1.5c-0.8-1-1.3-2.5-1.3-4.4c0-2,0.4-3.5,1.3-4.6
		C553.3,105.8,554.5,105.3,556.1,105.3z M556.1,106.3c-1.3,0-2.2,0.4-2.9,1.3c-0.6,0.9-1,2.2-1,3.9c0,3.3,1.3,4.9,3.8,4.9
		c1.3,0,2.3-0.4,2.9-1.1c0.6-0.8,0.9-2,0.9-3.8v-0.2c0-1.8-0.3-3.1-0.9-3.9S557.5,106.3,556.1,106.3z"/>
</g>
</svg>
